<svg xmlns="http://www.w3.org/2000/svg" viewBox="0 0 390 844">
  <rect width="390" height="844" fill="#0d0d10"/>
  <!-- walls, jittered per frame for the stop-motion read -->
  <path d="M0,120.22047257503516 L390,150.77164006338998 L390,701.4362986101472 L0,739.1609356406428 Z" fill="#1e1e26"/>
  <path d="M59.573618263506155,169.0377897026659 L330.71949765189527,196.46763467926888 L329.13894510298917,661.0383439969916 L58.930077195367815,700.8942396353904 Z" fill="#0d0d10"/>
  <line x1="0" y1="739.1061856749496" x2="390" y2="700.7960575531685" stroke="#2a2a34" stroke-width="2"/>
  <line x1="0" y1="120.63889682392538" x2="390" y2="149.08465611961887" stroke="#2a2a34" stroke-width="2"/>
  <rect x="217" y="504" width="2" height="2" fill="#2a2a34" opacity="0.5"/>
  <rect x="113" y="366" width="2" height="2" fill="#2a2a34" opacity="0.5"/>
  <rect x="222" y="496" width="2" height="2" fill="#2a2a34" opacity="0.5"/>
  <rect x="176" y="693" width="2" height="2" fill="#2a2a34" opacity="0.5"/>
  <rect x="292" y="766" width="2" height="2" fill="#2a2a34" opacity="0.5"/>
  <rect x="384" y="222" width="2" height="2" fill="#2a2a34" opacity="0.5"/>
  <rect x="194" y="482" width="2" height="2" fill="#2a2a34" opacity="0.5"/>
  <rect x="231" y="340" width="2" height="2" fill="#2a2a34" opacity="0.5"/>
  <rect x="250" y="714" width="2" height="2" fill="#2a2a34" opacity="0.5"/>
  <rect x="89" y="109" width="2" height="2" fill="#2a2a34" opacity="0.5"/>
  <rect x="57" y="381" width="2" height="2" fill="#2a2a34" opacity="0.5"/>
  <rect x="213" y="39" width="2" height="2" fill="#2a2a34" opacity="0.5"/>
  <rect x="27" y="362" width="2" height="2" fill="#2a2a34" opacity="0.5"/>
  <rect x="84" y="0" width="2" height="2" fill="#2a2a34" opacity="0.5"/>
  <rect x="31" y="215" width="2" height="2" fill="#2a2a34" opacity="0.5"/>
  <rect x="184" y="122" width="2" height="2" fill="#2a2a34" opacity="0.5"/>
  <rect x="198" y="805" width="2" height="2" fill="#2a2a34" opacity="0.5"/>
  <rect x="168" y="782" width="2" height="2" fill="#2a2a34" opacity="0.5"/>
  <rect x="388" y="37" width="2" height="2" fill="#2a2a34" opacity="0.5"/>
  <rect x="317" y="255" width="2" height="2" fill="#2a2a34" opacity="0.5"/>
  <rect x="273" y="528" width="2" height="2" fill="#2a2a34" opacity="0.5"/>
  <rect x="47" y="722" width="2" height="2" fill="#2a2a34" opacity="0.5"/>
  <rect x="93" y="727" width="2" height="2" fill="#2a2a34" opacity="0.5"/>
  <rect x="147" y="24" width="2" height="2" fill="#2a2a34" opacity="0.5"/>
  <rect x="40" y="834" width="2" height="2" fill="#2a2a34" opacity="0.5"/>
  <rect x="201" y="766" width="2" height="2" fill="#2a2a34" opacity="0.5"/>
  <rect x="161" y="713" width="2" height="2" fill="#2a2a34" opacity="0.5"/>
  <rect x="116" y="85" width="2" height="2" fill="#2a2a34" opacity="0.5"/>
  <rect x="0" y="151" width="2" height="2" fill="#2a2a34" opacity="0.5"/>
  <rect x="217" y="201" width="2" height="2" fill="#2a2a34" opacity="0.5"/>
  <rect x="377" y="639" width="2" height="2" fill="#2a2a34" opacity="0.5"/>
  <rect x="99" y="219" width="2" height="2" fill="#2a2a34" opacity="0.5"/>
  <rect x="37" y="623" width="2" height="2" fill="#2a2a34" opacity="0.5"/>
  <rect x="372" y="425" width="2" height="2" fill="#2a2a34" opacity="0.5"/>
  <rect x="109" y="428" width="2" height="2" fill="#2a2a34" opacity="0.5"/>
  <rect x="24" y="486" width="2" height="2" fill="#2a2a34" opacity="0.5"/>
  <rect x="348" y="390" width="2" height="2" fill="#2a2a34" opacity="0.5"/>
  <rect x="158" y="82" width="2" height="2" fill="#2a2a34" opacity="0.5"/>
  <rect x="60" y="753" width="2" height="2" fill="#2a2a34" opacity="0.5"/>
  <rect x="119" y="282" width="2" height="2" fill="#2a2a34" opacity="0.5"/>
  <text x="195" y="804" text-anchor="middle" font-family="monospace" font-size="11" fill="#3a3a46" letter-spacing="2">PLACEHOLDER BG — ALLEY</text>
  <text x="195" y="820" text-anchor="middle" font-family="monospace" font-size="9" fill="#3a3a46" letter-spacing="1">frame 3</text>
</svg>
