<svg xmlns="http://www.w3.org/2000/svg" viewBox="0 0 390 844">
  <rect width="390" height="844" fill="#0d0d10"/>
  <!-- walls, jittered per frame for the stop-motion read -->
  <path d="M0,119.55266699243927 L390,151.0241206896138 L390,699.4117039446307 L0,740.858229995872 Z" fill="#1e1e26"/>
  <path d="M59.94924724169506,168.7400001288578 L331.3732270909814,195.26857709966998 L331.0349307072046,658.6163020134513 L59.30804023184257,701.4964004768973 Z" fill="#0d0d10"/>
  <line x1="0" y1="740.3417391785615" x2="390" y2="701.4099879278382" stroke="#2a2a34" stroke-width="2"/>
  <line x1="0" y1="120.14011716919025" x2="390" y2="150.44490766615834" stroke="#2a2a34" stroke-width="2"/>
  <rect x="266" y="5" width="2" height="2" fill="#2a2a34" opacity="0.5"/>
  <rect x="359" y="220" width="2" height="2" fill="#2a2a34" opacity="0.5"/>
  <rect x="23" y="842" width="2" height="2" fill="#2a2a34" opacity="0.5"/>
  <rect x="149" y="547" width="2" height="2" fill="#2a2a34" opacity="0.5"/>
  <rect x="163" y="446" width="2" height="2" fill="#2a2a34" opacity="0.5"/>
  <rect x="64" y="331" width="2" height="2" fill="#2a2a34" opacity="0.5"/>
  <rect x="212" y="776" width="2" height="2" fill="#2a2a34" opacity="0.5"/>
  <rect x="125" y="813" width="2" height="2" fill="#2a2a34" opacity="0.5"/>
  <rect x="356" y="618" width="2" height="2" fill="#2a2a34" opacity="0.5"/>
  <rect x="9" y="65" width="2" height="2" fill="#2a2a34" opacity="0.5"/>
  <rect x="63" y="355" width="2" height="2" fill="#2a2a34" opacity="0.5"/>
  <rect x="257" y="116" width="2" height="2" fill="#2a2a34" opacity="0.5"/>
  <rect x="122" y="510" width="2" height="2" fill="#2a2a34" opacity="0.5"/>
  <rect x="68" y="722" width="2" height="2" fill="#2a2a34" opacity="0.5"/>
  <rect x="40" y="729" width="2" height="2" fill="#2a2a34" opacity="0.5"/>
  <rect x="93" y="118" width="2" height="2" fill="#2a2a34" opacity="0.5"/>
  <rect x="67" y="104" width="2" height="2" fill="#2a2a34" opacity="0.5"/>
  <rect x="91" y="433" width="2" height="2" fill="#2a2a34" opacity="0.5"/>
  <rect x="134" y="326" width="2" height="2" fill="#2a2a34" opacity="0.5"/>
  <rect x="272" y="609" width="2" height="2" fill="#2a2a34" opacity="0.5"/>
  <rect x="273" y="663" width="2" height="2" fill="#2a2a34" opacity="0.5"/>
  <rect x="308" y="48" width="2" height="2" fill="#2a2a34" opacity="0.5"/>
  <rect x="389" y="510" width="2" height="2" fill="#2a2a34" opacity="0.5"/>
  <rect x="243" y="339" width="2" height="2" fill="#2a2a34" opacity="0.5"/>
  <rect x="268" y="765" width="2" height="2" fill="#2a2a34" opacity="0.5"/>
  <rect x="273" y="120" width="2" height="2" fill="#2a2a34" opacity="0.5"/>
  <rect x="25" y="572" width="2" height="2" fill="#2a2a34" opacity="0.5"/>
  <rect x="369" y="670" width="2" height="2" fill="#2a2a34" opacity="0.5"/>
  <rect x="97" y="40" width="2" height="2" fill="#2a2a34" opacity="0.5"/>
  <rect x="249" y="529" width="2" height="2" fill="#2a2a34" opacity="0.5"/>
  <rect x="46" y="492" width="2" height="2" fill="#2a2a34" opacity="0.5"/>
  <rect x="16" y="313" width="2" height="2" fill="#2a2a34" opacity="0.5"/>
  <rect x="212" y="50" width="2" height="2" fill="#2a2a34" opacity="0.5"/>
  <rect x="161" y="104" width="2" height="2" fill="#2a2a34" opacity="0.5"/>
  <rect x="54" y="151" width="2" height="2" fill="#2a2a34" opacity="0.5"/>
  <rect x="304" y="172" width="2" height="2" fill="#2a2a34" opacity="0.5"/>
  <rect x="381" y="456" width="2" height="2" fill="#2a2a34" opacity="0.5"/>
  <rect x="100" y="602" width="2" height="2" fill="#2a2a34" opacity="0.5"/>
  <rect x="175" y="608" width="2" height="2" fill="#2a2a34" opacity="0.5"/>
  <rect x="321" y="155" width="2" height="2" fill="#2a2a34" opacity="0.5"/>
  <text x="195" y="804" text-anchor="middle" font-family="monospace" font-size="11" fill="#3a3a46" letter-spacing="2">PLACEHOLDER BG — ALLEY</text>
  <text x="195" y="820" text-anchor="middle" font-family="monospace" font-size="9" fill="#3a3a46" letter-spacing="1">frame 0</text>
</svg>
