<svg xmlns="http://www.w3.org/2000/svg" viewBox="0 0 390 844">
  <rect width="390" height="844" fill="#0d0d10"/>
  <!-- walls, jittered per frame for the stop-motion read -->
  <path d="M0,118.84451419131109 L390,148.55362048747654 L390,698.847137559367 L0,740.1951489009406 Z" fill="#1e1e26"/>
  <path d="M60.361907244595656,169.7304995065697 L331.3323490632849,195.54088425731328 L328.67698216446536,660.9896815728814 L59.09083879021501,698.5360278785397 Z" fill="#0d0d10"/>
  <line x1="0" y1="740.6950155991107" x2="390" y2="700.0034729249326" stroke="#2a2a34" stroke-width="2"/>
  <line x1="0" y1="119.83529198231888" x2="390" y2="148.82900869861663" stroke="#2a2a34" stroke-width="2"/>
  <rect x="382" y="595" width="2" height="2" fill="#2a2a34" opacity="0.5"/>
  <rect x="271" y="286" width="2" height="2" fill="#2a2a34" opacity="0.5"/>
  <rect x="104" y="105" width="2" height="2" fill="#2a2a34" opacity="0.5"/>
  <rect x="284" y="242" width="2" height="2" fill="#2a2a34" opacity="0.5"/>
  <rect x="270" y="38" width="2" height="2" fill="#2a2a34" opacity="0.5"/>
  <rect x="189" y="106" width="2" height="2" fill="#2a2a34" opacity="0.5"/>
  <rect x="9" y="612" width="2" height="2" fill="#2a2a34" opacity="0.5"/>
  <rect x="275" y="9" width="2" height="2" fill="#2a2a34" opacity="0.5"/>
  <rect x="214" y="271" width="2" height="2" fill="#2a2a34" opacity="0.5"/>
  <rect x="0" y="232" width="2" height="2" fill="#2a2a34" opacity="0.5"/>
  <rect x="124" y="659" width="2" height="2" fill="#2a2a34" opacity="0.5"/>
  <rect x="309" y="179" width="2" height="2" fill="#2a2a34" opacity="0.5"/>
  <rect x="6" y="64" width="2" height="2" fill="#2a2a34" opacity="0.5"/>
  <rect x="357" y="574" width="2" height="2" fill="#2a2a34" opacity="0.5"/>
  <rect x="52" y="386" width="2" height="2" fill="#2a2a34" opacity="0.5"/>
  <rect x="354" y="439" width="2" height="2" fill="#2a2a34" opacity="0.5"/>
  <rect x="347" y="587" width="2" height="2" fill="#2a2a34" opacity="0.5"/>
  <rect x="330" y="69" width="2" height="2" fill="#2a2a34" opacity="0.5"/>
  <rect x="264" y="840" width="2" height="2" fill="#2a2a34" opacity="0.5"/>
  <rect x="193" y="416" width="2" height="2" fill="#2a2a34" opacity="0.5"/>
  <rect x="0" y="363" width="2" height="2" fill="#2a2a34" opacity="0.5"/>
  <rect x="294" y="631" width="2" height="2" fill="#2a2a34" opacity="0.5"/>
  <rect x="199" y="767" width="2" height="2" fill="#2a2a34" opacity="0.5"/>
  <rect x="318" y="558" width="2" height="2" fill="#2a2a34" opacity="0.5"/>
  <rect x="55" y="346" width="2" height="2" fill="#2a2a34" opacity="0.5"/>
  <rect x="288" y="70" width="2" height="2" fill="#2a2a34" opacity="0.5"/>
  <rect x="260" y="501" width="2" height="2" fill="#2a2a34" opacity="0.5"/>
  <rect x="60" y="833" width="2" height="2" fill="#2a2a34" opacity="0.5"/>
  <rect x="268" y="660" width="2" height="2" fill="#2a2a34" opacity="0.5"/>
  <rect x="136" y="654" width="2" height="2" fill="#2a2a34" opacity="0.5"/>
  <rect x="200" y="142" width="2" height="2" fill="#2a2a34" opacity="0.5"/>
  <rect x="68" y="226" width="2" height="2" fill="#2a2a34" opacity="0.5"/>
  <rect x="138" y="834" width="2" height="2" fill="#2a2a34" opacity="0.5"/>
  <rect x="323" y="729" width="2" height="2" fill="#2a2a34" opacity="0.5"/>
  <rect x="236" y="620" width="2" height="2" fill="#2a2a34" opacity="0.5"/>
  <rect x="287" y="825" width="2" height="2" fill="#2a2a34" opacity="0.5"/>
  <rect x="235" y="531" width="2" height="2" fill="#2a2a34" opacity="0.5"/>
  <rect x="374" y="454" width="2" height="2" fill="#2a2a34" opacity="0.5"/>
  <rect x="352" y="558" width="2" height="2" fill="#2a2a34" opacity="0.5"/>
  <rect x="94" y="195" width="2" height="2" fill="#2a2a34" opacity="0.5"/>
  <text x="195" y="804" text-anchor="middle" font-family="monospace" font-size="11" fill="#3a3a46" letter-spacing="2">PLACEHOLDER BG — BARLOT</text>
  <text x="195" y="820" text-anchor="middle" font-family="monospace" font-size="9" fill="#3a3a46" letter-spacing="1">frame 1</text>
</svg>
