<svg xmlns="http://www.w3.org/2000/svg" viewBox="0 0 390 844">
  <rect width="390" height="844" fill="#0d0d10"/>
  <!-- walls, jittered per frame for the stop-motion read -->
  <path d="M0,118.71540427217977 L390,148.5778377950554 L390,698.9408340940442 L0,739.5670371954642 Z" fill="#1e1e26"/>
  <path d="M60.12843668536676,171.48270905156747 L329.77149295866093,194.63913631492255 L329.56480121662133,660.3890333184455 L59.7469339376534,698.5676717758494 Z" fill="#0d0d10"/>
  <line x1="0" y1="740.7712603408244" x2="390" y2="699.7964954382257" stroke="#2a2a34" stroke-width="2"/>
  <line x1="0" y1="120.98891830560235" x2="390" y2="149.01281547570267" stroke="#2a2a34" stroke-width="2"/>
  <rect x="267" y="498" width="2" height="2" fill="#2a2a34" opacity="0.5"/>
  <rect x="356" y="214" width="2" height="2" fill="#2a2a34" opacity="0.5"/>
  <rect x="172" y="369" width="2" height="2" fill="#2a2a34" opacity="0.5"/>
  <rect x="296" y="23" width="2" height="2" fill="#2a2a34" opacity="0.5"/>
  <rect x="40" y="672" width="2" height="2" fill="#2a2a34" opacity="0.5"/>
  <rect x="295" y="350" width="2" height="2" fill="#2a2a34" opacity="0.5"/>
  <rect x="253" y="748" width="2" height="2" fill="#2a2a34" opacity="0.5"/>
  <rect x="127" y="800" width="2" height="2" fill="#2a2a34" opacity="0.5"/>
  <rect x="340" y="301" width="2" height="2" fill="#2a2a34" opacity="0.5"/>
  <rect x="160" y="120" width="2" height="2" fill="#2a2a34" opacity="0.5"/>
  <rect x="260" y="200" width="2" height="2" fill="#2a2a34" opacity="0.5"/>
  <rect x="346" y="310" width="2" height="2" fill="#2a2a34" opacity="0.5"/>
  <rect x="193" y="117" width="2" height="2" fill="#2a2a34" opacity="0.5"/>
  <rect x="130" y="720" width="2" height="2" fill="#2a2a34" opacity="0.5"/>
  <rect x="195" y="256" width="2" height="2" fill="#2a2a34" opacity="0.5"/>
  <rect x="82" y="739" width="2" height="2" fill="#2a2a34" opacity="0.5"/>
  <rect x="387" y="366" width="2" height="2" fill="#2a2a34" opacity="0.5"/>
  <rect x="343" y="117" width="2" height="2" fill="#2a2a34" opacity="0.5"/>
  <rect x="300" y="720" width="2" height="2" fill="#2a2a34" opacity="0.5"/>
  <rect x="25" y="19" width="2" height="2" fill="#2a2a34" opacity="0.5"/>
  <rect x="48" y="163" width="2" height="2" fill="#2a2a34" opacity="0.5"/>
  <rect x="245" y="750" width="2" height="2" fill="#2a2a34" opacity="0.5"/>
  <rect x="366" y="703" width="2" height="2" fill="#2a2a34" opacity="0.5"/>
  <rect x="279" y="57" width="2" height="2" fill="#2a2a34" opacity="0.5"/>
  <rect x="66" y="737" width="2" height="2" fill="#2a2a34" opacity="0.5"/>
  <rect x="214" y="231" width="2" height="2" fill="#2a2a34" opacity="0.5"/>
  <rect x="262" y="222" width="2" height="2" fill="#2a2a34" opacity="0.5"/>
  <rect x="187" y="147" width="2" height="2" fill="#2a2a34" opacity="0.5"/>
  <rect x="378" y="396" width="2" height="2" fill="#2a2a34" opacity="0.5"/>
  <rect x="62" y="595" width="2" height="2" fill="#2a2a34" opacity="0.5"/>
  <rect x="136" y="638" width="2" height="2" fill="#2a2a34" opacity="0.5"/>
  <rect x="365" y="203" width="2" height="2" fill="#2a2a34" opacity="0.5"/>
  <rect x="126" y="518" width="2" height="2" fill="#2a2a34" opacity="0.5"/>
  <rect x="285" y="493" width="2" height="2" fill="#2a2a34" opacity="0.5"/>
  <rect x="314" y="513" width="2" height="2" fill="#2a2a34" opacity="0.5"/>
  <rect x="241" y="74" width="2" height="2" fill="#2a2a34" opacity="0.5"/>
  <rect x="105" y="67" width="2" height="2" fill="#2a2a34" opacity="0.5"/>
  <rect x="351" y="823" width="2" height="2" fill="#2a2a34" opacity="0.5"/>
  <rect x="93" y="687" width="2" height="2" fill="#2a2a34" opacity="0.5"/>
  <rect x="86" y="356" width="2" height="2" fill="#2a2a34" opacity="0.5"/>
  <text x="195" y="804" text-anchor="middle" font-family="monospace" font-size="11" fill="#3a3a46" letter-spacing="2">PLACEHOLDER BG — GARAGE</text>
  <text x="195" y="820" text-anchor="middle" font-family="monospace" font-size="9" fill="#3a3a46" letter-spacing="1">frame 0</text>
</svg>
