<svg xmlns="http://www.w3.org/2000/svg" viewBox="0 0 390 844">
  <rect width="390" height="844" fill="#0d0d10"/>
  <!-- walls, jittered per frame for the stop-motion read -->
  <path d="M0,118.61819350724956 L390,149.54918620039206 L390,700.9371337901973 L0,738.8351001741063 Z" fill="#1e1e26"/>
  <path d="M61.05620965480628,169.6813889747399 L330.793326974983,193.98504745982822 L330.71973869307885,659.0882685187219 L59.76081213413776,700.9541286241515 Z" fill="#0d0d10"/>
  <line x1="0" y1="741.1810063136187" x2="390" y2="700.1418756254212" stroke="#2a2a34" stroke-width="2"/>
  <line x1="0" y1="119.70255839880674" x2="390" y2="148.9681037666593" stroke="#2a2a34" stroke-width="2"/>
  <rect x="56" y="205" width="2" height="2" fill="#2a2a34" opacity="0.5"/>
  <rect x="292" y="34" width="2" height="2" fill="#2a2a34" opacity="0.5"/>
  <rect x="360" y="840" width="2" height="2" fill="#2a2a34" opacity="0.5"/>
  <rect x="235" y="702" width="2" height="2" fill="#2a2a34" opacity="0.5"/>
  <rect x="102" y="209" width="2" height="2" fill="#2a2a34" opacity="0.5"/>
  <rect x="95" y="114" width="2" height="2" fill="#2a2a34" opacity="0.5"/>
  <rect x="366" y="536" width="2" height="2" fill="#2a2a34" opacity="0.5"/>
  <rect x="283" y="181" width="2" height="2" fill="#2a2a34" opacity="0.5"/>
  <rect x="280" y="434" width="2" height="2" fill="#2a2a34" opacity="0.5"/>
  <rect x="96" y="600" width="2" height="2" fill="#2a2a34" opacity="0.5"/>
  <rect x="176" y="70" width="2" height="2" fill="#2a2a34" opacity="0.5"/>
  <rect x="263" y="487" width="2" height="2" fill="#2a2a34" opacity="0.5"/>
  <rect x="384" y="623" width="2" height="2" fill="#2a2a34" opacity="0.5"/>
  <rect x="155" y="698" width="2" height="2" fill="#2a2a34" opacity="0.5"/>
  <rect x="214" y="87" width="2" height="2" fill="#2a2a34" opacity="0.5"/>
  <rect x="231" y="323" width="2" height="2" fill="#2a2a34" opacity="0.5"/>
  <rect x="78" y="169" width="2" height="2" fill="#2a2a34" opacity="0.5"/>
  <rect x="313" y="157" width="2" height="2" fill="#2a2a34" opacity="0.5"/>
  <rect x="333" y="331" width="2" height="2" fill="#2a2a34" opacity="0.5"/>
  <rect x="43" y="579" width="2" height="2" fill="#2a2a34" opacity="0.5"/>
  <rect x="193" y="469" width="2" height="2" fill="#2a2a34" opacity="0.5"/>
  <rect x="143" y="736" width="2" height="2" fill="#2a2a34" opacity="0.5"/>
  <rect x="111" y="87" width="2" height="2" fill="#2a2a34" opacity="0.5"/>
  <rect x="30" y="649" width="2" height="2" fill="#2a2a34" opacity="0.5"/>
  <rect x="345" y="59" width="2" height="2" fill="#2a2a34" opacity="0.5"/>
  <rect x="154" y="251" width="2" height="2" fill="#2a2a34" opacity="0.5"/>
  <rect x="68" y="728" width="2" height="2" fill="#2a2a34" opacity="0.5"/>
  <rect x="333" y="603" width="2" height="2" fill="#2a2a34" opacity="0.5"/>
  <rect x="326" y="358" width="2" height="2" fill="#2a2a34" opacity="0.5"/>
  <rect x="272" y="149" width="2" height="2" fill="#2a2a34" opacity="0.5"/>
  <rect x="162" y="223" width="2" height="2" fill="#2a2a34" opacity="0.5"/>
  <rect x="14" y="489" width="2" height="2" fill="#2a2a34" opacity="0.5"/>
  <rect x="81" y="535" width="2" height="2" fill="#2a2a34" opacity="0.5"/>
  <rect x="230" y="776" width="2" height="2" fill="#2a2a34" opacity="0.5"/>
  <rect x="355" y="336" width="2" height="2" fill="#2a2a34" opacity="0.5"/>
  <rect x="179" y="324" width="2" height="2" fill="#2a2a34" opacity="0.5"/>
  <rect x="69" y="570" width="2" height="2" fill="#2a2a34" opacity="0.5"/>
  <rect x="114" y="770" width="2" height="2" fill="#2a2a34" opacity="0.5"/>
  <rect x="287" y="808" width="2" height="2" fill="#2a2a34" opacity="0.5"/>
  <rect x="85" y="388" width="2" height="2" fill="#2a2a34" opacity="0.5"/>
  <text x="195" y="804" text-anchor="middle" font-family="monospace" font-size="11" fill="#3a3a46" letter-spacing="2">PLACEHOLDER BG — GARAGE</text>
  <text x="195" y="820" text-anchor="middle" font-family="monospace" font-size="9" fill="#3a3a46" letter-spacing="1">frame 5</text>
</svg>
