<svg xmlns="http://www.w3.org/2000/svg" viewBox="0 0 390 844">
  <rect width="390" height="844" fill="#0d0d10"/>
  <!-- walls, jittered per frame for the stop-motion read -->
  <path d="M0,118.98354935668574 L390,151.0641969156285 L390,700.7603744278942 L0,739.9280098683331 Z" fill="#1e1e26"/>
  <path d="M59.482255340079895,169.25609576737327 L330.0878566510919,195.03861129355553 L329.2770684961123,660.9698313486156 L59.00710523152124,700.0423707671196 Z" fill="#0d0d10"/>
  <line x1="0" y1="738.6661753655254" x2="390" y2="698.6153293550551" stroke="#2a2a34" stroke-width="2"/>
  <line x1="0" y1="118.94013386985293" x2="390" y2="151.49740567942962" stroke="#2a2a34" stroke-width="2"/>
  <rect x="218" y="153" width="2" height="2" fill="#2a2a34" opacity="0.5"/>
  <rect x="110" y="76" width="2" height="2" fill="#2a2a34" opacity="0.5"/>
  <rect x="34" y="744" width="2" height="2" fill="#2a2a34" opacity="0.5"/>
  <rect x="381" y="668" width="2" height="2" fill="#2a2a34" opacity="0.5"/>
  <rect x="377" y="212" width="2" height="2" fill="#2a2a34" opacity="0.5"/>
  <rect x="321" y="676" width="2" height="2" fill="#2a2a34" opacity="0.5"/>
  <rect x="26" y="702" width="2" height="2" fill="#2a2a34" opacity="0.5"/>
  <rect x="202" y="224" width="2" height="2" fill="#2a2a34" opacity="0.5"/>
  <rect x="325" y="111" width="2" height="2" fill="#2a2a34" opacity="0.5"/>
  <rect x="116" y="790" width="2" height="2" fill="#2a2a34" opacity="0.5"/>
  <rect x="94" y="512" width="2" height="2" fill="#2a2a34" opacity="0.5"/>
  <rect x="10" y="667" width="2" height="2" fill="#2a2a34" opacity="0.5"/>
  <rect x="299" y="290" width="2" height="2" fill="#2a2a34" opacity="0.5"/>
  <rect x="111" y="662" width="2" height="2" fill="#2a2a34" opacity="0.5"/>
  <rect x="176" y="68" width="2" height="2" fill="#2a2a34" opacity="0.5"/>
  <rect x="299" y="182" width="2" height="2" fill="#2a2a34" opacity="0.5"/>
  <rect x="218" y="357" width="2" height="2" fill="#2a2a34" opacity="0.5"/>
  <rect x="213" y="169" width="2" height="2" fill="#2a2a34" opacity="0.5"/>
  <rect x="163" y="628" width="2" height="2" fill="#2a2a34" opacity="0.5"/>
  <rect x="359" y="466" width="2" height="2" fill="#2a2a34" opacity="0.5"/>
  <rect x="183" y="9" width="2" height="2" fill="#2a2a34" opacity="0.5"/>
  <rect x="25" y="265" width="2" height="2" fill="#2a2a34" opacity="0.5"/>
  <rect x="316" y="566" width="2" height="2" fill="#2a2a34" opacity="0.5"/>
  <rect x="102" y="403" width="2" height="2" fill="#2a2a34" opacity="0.5"/>
  <rect x="364" y="442" width="2" height="2" fill="#2a2a34" opacity="0.5"/>
  <rect x="336" y="363" width="2" height="2" fill="#2a2a34" opacity="0.5"/>
  <rect x="366" y="93" width="2" height="2" fill="#2a2a34" opacity="0.5"/>
  <rect x="0" y="106" width="2" height="2" fill="#2a2a34" opacity="0.5"/>
  <rect x="197" y="599" width="2" height="2" fill="#2a2a34" opacity="0.5"/>
  <rect x="76" y="650" width="2" height="2" fill="#2a2a34" opacity="0.5"/>
  <rect x="113" y="290" width="2" height="2" fill="#2a2a34" opacity="0.5"/>
  <rect x="5" y="382" width="2" height="2" fill="#2a2a34" opacity="0.5"/>
  <rect x="342" y="132" width="2" height="2" fill="#2a2a34" opacity="0.5"/>
  <rect x="250" y="533" width="2" height="2" fill="#2a2a34" opacity="0.5"/>
  <rect x="213" y="677" width="2" height="2" fill="#2a2a34" opacity="0.5"/>
  <rect x="139" y="717" width="2" height="2" fill="#2a2a34" opacity="0.5"/>
  <rect x="88" y="771" width="2" height="2" fill="#2a2a34" opacity="0.5"/>
  <rect x="331" y="363" width="2" height="2" fill="#2a2a34" opacity="0.5"/>
  <rect x="12" y="118" width="2" height="2" fill="#2a2a34" opacity="0.5"/>
  <rect x="75" y="755" width="2" height="2" fill="#2a2a34" opacity="0.5"/>
  <text x="195" y="804" text-anchor="middle" font-family="monospace" font-size="11" fill="#3a3a46" letter-spacing="2">PLACEHOLDER BG — GARAGE</text>
  <text x="195" y="820" text-anchor="middle" font-family="monospace" font-size="9" fill="#3a3a46" letter-spacing="1">frame 3</text>
</svg>
