<svg xmlns="http://www.w3.org/2000/svg" viewBox="0 0 390 844">
  <rect width="390" height="844" fill="#0d0d10"/>
  <!-- walls, jittered per frame for the stop-motion read -->
  <path d="M0,119.56843721916361 L390,148.62343132501627 L390,701.3026034547028 L0,739.0140821936141 Z" fill="#1e1e26"/>
  <path d="M59.071963638333585,168.69288498172205 L331.2627309871664,196.25236451753992 L328.98803508304434,659.4834999744703 L60.27977657400992,700.6992769251574 Z" fill="#0d0d10"/>
  <line x1="0" y1="741.2578229917017" x2="390" y2="700.4371957787952" stroke="#2a2a34" stroke-width="2"/>
  <line x1="0" y1="119.95464992590931" x2="390" y2="151.1315660488939" stroke="#2a2a34" stroke-width="2"/>
  <rect x="332" y="601" width="2" height="2" fill="#2a2a34" opacity="0.5"/>
  <rect x="28" y="438" width="2" height="2" fill="#2a2a34" opacity="0.5"/>
  <rect x="111" y="596" width="2" height="2" fill="#2a2a34" opacity="0.5"/>
  <rect x="136" y="810" width="2" height="2" fill="#2a2a34" opacity="0.5"/>
  <rect x="277" y="101" width="2" height="2" fill="#2a2a34" opacity="0.5"/>
  <rect x="300" y="447" width="2" height="2" fill="#2a2a34" opacity="0.5"/>
  <rect x="78" y="643" width="2" height="2" fill="#2a2a34" opacity="0.5"/>
  <rect x="20" y="212" width="2" height="2" fill="#2a2a34" opacity="0.5"/>
  <rect x="219" y="536" width="2" height="2" fill="#2a2a34" opacity="0.5"/>
  <rect x="207" y="511" width="2" height="2" fill="#2a2a34" opacity="0.5"/>
  <rect x="374" y="443" width="2" height="2" fill="#2a2a34" opacity="0.5"/>
  <rect x="84" y="564" width="2" height="2" fill="#2a2a34" opacity="0.5"/>
  <rect x="221" y="55" width="2" height="2" fill="#2a2a34" opacity="0.5"/>
  <rect x="161" y="527" width="2" height="2" fill="#2a2a34" opacity="0.5"/>
  <rect x="173" y="360" width="2" height="2" fill="#2a2a34" opacity="0.5"/>
  <rect x="291" y="365" width="2" height="2" fill="#2a2a34" opacity="0.5"/>
  <rect x="55" y="646" width="2" height="2" fill="#2a2a34" opacity="0.5"/>
  <rect x="135" y="749" width="2" height="2" fill="#2a2a34" opacity="0.5"/>
  <rect x="103" y="818" width="2" height="2" fill="#2a2a34" opacity="0.5"/>
  <rect x="68" y="532" width="2" height="2" fill="#2a2a34" opacity="0.5"/>
  <rect x="65" y="264" width="2" height="2" fill="#2a2a34" opacity="0.5"/>
  <rect x="141" y="505" width="2" height="2" fill="#2a2a34" opacity="0.5"/>
  <rect x="102" y="571" width="2" height="2" fill="#2a2a34" opacity="0.5"/>
  <rect x="322" y="789" width="2" height="2" fill="#2a2a34" opacity="0.5"/>
  <rect x="182" y="131" width="2" height="2" fill="#2a2a34" opacity="0.5"/>
  <rect x="72" y="404" width="2" height="2" fill="#2a2a34" opacity="0.5"/>
  <rect x="121" y="246" width="2" height="2" fill="#2a2a34" opacity="0.5"/>
  <rect x="134" y="575" width="2" height="2" fill="#2a2a34" opacity="0.5"/>
  <rect x="240" y="209" width="2" height="2" fill="#2a2a34" opacity="0.5"/>
  <rect x="192" y="632" width="2" height="2" fill="#2a2a34" opacity="0.5"/>
  <rect x="304" y="330" width="2" height="2" fill="#2a2a34" opacity="0.5"/>
  <rect x="175" y="191" width="2" height="2" fill="#2a2a34" opacity="0.5"/>
  <rect x="253" y="66" width="2" height="2" fill="#2a2a34" opacity="0.5"/>
  <rect x="67" y="614" width="2" height="2" fill="#2a2a34" opacity="0.5"/>
  <rect x="335" y="524" width="2" height="2" fill="#2a2a34" opacity="0.5"/>
  <rect x="324" y="10" width="2" height="2" fill="#2a2a34" opacity="0.5"/>
  <rect x="325" y="129" width="2" height="2" fill="#2a2a34" opacity="0.5"/>
  <rect x="316" y="269" width="2" height="2" fill="#2a2a34" opacity="0.5"/>
  <rect x="129" y="820" width="2" height="2" fill="#2a2a34" opacity="0.5"/>
  <rect x="126" y="766" width="2" height="2" fill="#2a2a34" opacity="0.5"/>
  <text x="195" y="804" text-anchor="middle" font-family="monospace" font-size="11" fill="#3a3a46" letter-spacing="2">PLACEHOLDER BG — GARAGE</text>
  <text x="195" y="820" text-anchor="middle" font-family="monospace" font-size="9" fill="#3a3a46" letter-spacing="1">frame 4</text>
</svg>
